<svg width="389" height="35" viewBox="0 0 389 35" fill="none" xmlns="http://www.w3.org/2000/svg">
<rect x="0.706299" y="0.76709" width="387.486" height="33.281" rx="16.6405" fill="#81EEBA"/>
<path d="M185.931 20.487H182.025V23.6814H186.562V24.6533H180.836V15.6397H186.5V16.6178H182.025V19.5151H185.931V20.487ZM188.946 17.955L188.983 18.797C189.495 18.1531 190.163 17.8312 190.989 17.8312C192.404 17.8312 193.118 18.6298 193.131 20.227V24.6533H191.985V20.2208C191.981 19.7379 191.87 19.3809 191.651 19.1498C191.436 18.9187 191.1 18.8031 190.642 18.8031C190.271 18.8031 189.945 18.9022 189.664 19.1003C189.383 19.2984 189.165 19.5584 189.008 19.8803V24.6533H187.862V17.955H188.946ZM197.068 23.0995L198.727 17.955H199.897L197.495 24.6533H196.622L194.195 17.955H195.366L197.068 23.0995ZM202.243 24.6533H201.098V17.955H202.243V24.6533ZM201.005 16.1783C201.005 15.9926 201.061 15.8358 201.172 15.7078C201.288 15.5799 201.457 15.5159 201.68 15.5159C201.903 15.5159 202.072 15.5799 202.188 15.7078C202.303 15.8358 202.361 15.9926 202.361 16.1783C202.361 16.364 202.303 16.5188 202.188 16.6426C202.072 16.7664 201.903 16.8283 201.68 16.8283C201.457 16.8283 201.288 16.7664 201.172 16.6426C201.061 16.5188 201.005 16.364 201.005 16.1783ZM208.217 24.6533C208.151 24.5213 208.098 24.286 208.056 23.9476C207.524 24.5006 206.888 24.7771 206.15 24.7771C205.489 24.7771 204.947 24.5914 204.522 24.22C204.101 23.8444 203.89 23.3698 203.89 22.7961C203.89 22.0986 204.154 21.558 204.682 21.1742C205.215 20.7862 205.962 20.5922 206.923 20.5922H208.038V20.066C208.038 19.6657 207.918 19.3479 207.679 19.1127C207.439 18.8733 207.086 18.7536 206.62 18.7536C206.212 18.7536 205.869 18.8568 205.592 19.0632C205.316 19.2695 205.178 19.5192 205.178 19.8122H204.026C204.026 19.4779 204.144 19.156 204.379 18.8465C204.618 18.5328 204.94 18.2852 205.345 18.1036C205.753 17.922 206.201 17.8312 206.688 17.8312C207.46 17.8312 208.065 18.0252 208.502 18.4131C208.94 18.797 209.167 19.3273 209.183 20.0041V23.0871C209.183 23.702 209.261 24.1911 209.418 24.5543V24.6533H208.217ZM206.317 23.7804C206.676 23.7804 207.016 23.6876 207.338 23.5019C207.66 23.3161 207.893 23.0747 208.038 22.7775V21.4032H207.14C205.737 21.4032 205.035 21.8139 205.035 22.6352C205.035 22.9942 205.155 23.2749 205.394 23.4771C205.634 23.6793 205.941 23.7804 206.317 23.7804ZM214.216 18.9827C214.043 18.9538 213.855 18.9393 213.653 18.9393C212.902 18.9393 212.392 19.2592 212.124 19.8989V24.6533H210.978V17.955H212.093L212.111 18.7289C212.487 18.1304 213.019 17.8312 213.708 17.8312C213.931 17.8312 214.101 17.8601 214.216 17.9179V18.9827Z" fill="#121826"/>
</svg>
