<svg width="94" height="23" viewBox="0 0 94 23" fill="none" xmlns="http://www.w3.org/2000/svg">
<path d="M7.98682 4.71289H11.0822V16.1221H16.8144V19.0133H7.98682V4.71289Z" fill="#007AB2"/>
<path d="M18.1819 9.31775H21.1575V19.0084H18.1819V9.31775V9.31775ZM19.6699 4.50049C20.6227 4.50049 21.396 5.28295 21.396 6.24725C21.396 7.21123 20.6227 7.99152 19.6699 7.99152C18.7179 7.99152 17.9446 7.21123 17.9446 6.24725C17.9447 5.28311 18.7179 4.50049 19.6699 4.50049Z" fill="#007AB2"/>
<path d="M33.5972 4.71289H36.5706V13.2588L39.9414 9.31367H43.5879L39.6857 13.8005L43.506 19.0133H39.7675L36.6093 14.2225H36.5706V19.0133H33.5972V4.71289Z" fill="#007AB2"/>
<path d="M22.8035 9.32014H25.6599V10.6439H25.6997C26.0959 9.88224 27.068 9.0791 28.5163 9.0791C31.5316 9.0791 32.0869 11.0863 32.0869 13.6951V19.0086H29.1113V14.2971C29.1113 13.1733 29.0909 11.7288 27.5634 11.7288C26.0164 11.7288 25.7791 12.9524 25.7791 14.2166V19.0086H22.8035V9.32014V9.32014Z" fill="#007AB2"/>
<path d="M49.8509 13.0372C49.8696 12.033 49.0966 11.1905 48.024 11.1905C46.7159 11.1905 46.0023 12.0939 45.9229 13.0372H49.8509ZM52.3703 17.3306C51.4165 18.5556 49.8509 19.2585 48.3034 19.2585C45.3278 19.2585 42.9473 17.2512 42.9473 14.1395C42.9473 11.0295 45.3278 9.02197 48.3034 9.02197C51.0816 9.02197 52.8254 11.0295 52.8254 14.1395V15.0825H45.9229C46.1591 16.2272 47.0145 16.9699 48.1637 16.9699C49.1368 16.9699 49.7899 16.4684 50.2862 15.7861L52.3703 17.3306Z" fill="#007AB2"/>
<path d="M59.0246 11.6614C57.5377 11.6614 56.6439 12.6656 56.6439 14.13C56.6439 15.5962 57.5377 16.5994 59.0246 16.5994C60.5136 16.5994 61.4055 15.5962 61.4055 14.13C61.4055 12.6656 60.5136 11.6614 59.0246 11.6614ZM64.1445 19.0077H61.4055V17.722H61.3668C60.9085 18.4254 59.759 19.248 58.4105 19.248C55.5528 19.248 53.6685 17.1613 53.6685 14.2114C53.6685 11.5007 55.3356 9.0128 58.0729 9.0128C59.304 9.0128 60.4532 9.35283 61.1284 10.2963H61.167V4.71289H64.1447V19.0077H64.1445Z" fill="#007AB2"/>
<path d="M85.7047 1.70947H68.6002C67.7836 1.70947 67.1199 2.36497 67.1199 3.1737V20.5508C67.1199 21.3596 67.7834 22.0161 68.6002 22.0161H85.7047C86.5235 22.0161 87.1894 21.3596 87.1894 20.5508V3.1737C87.1894 2.36497 86.5235 1.70947 85.7047 1.70947Z" fill="#007AB2"/>
<path d="M70.0941 9.32214H73.0732V19.0128H70.0941V9.32214ZM71.5843 4.50488C72.5366 4.50488 73.3096 5.28735 73.3096 6.25133C73.3096 7.21562 72.5366 7.99809 71.5843 7.99809C70.6283 7.99809 69.8574 7.21562 69.8574 6.25133C69.8573 5.28735 70.6283 4.50488 71.5843 4.50488Z" fill="white"/>
<path d="M74.9407 9.32244H77.7942V10.6473H77.835C78.2319 9.88532 79.2037 9.08203 80.6519 9.08203C83.6655 9.08203 84.2224 11.0885 84.2224 13.6985V19.0131H81.2465V14.3005C81.2465 13.177 81.2268 11.7311 79.6992 11.7311C78.1502 11.7311 77.914 12.956 77.914 14.2202V19.0132H74.9408V9.32244H74.9407Z" fill="white"/>
</svg>
