<svg width="102" height="33" viewBox="0 0 102 33" fill="none" xmlns="http://www.w3.org/2000/svg">
<rect width="102" height="33" rx="16.5" fill="#81EEBA"/>
<path d="M38.0235 18.6475H34.2472L33.3991 21H32.1733L35.6153 11.9864H36.6554L40.1036 21H38.884L38.0235 18.6475ZM34.6063 17.6694H37.6706L36.1354 13.4536L34.6063 17.6694ZM43.8242 20.189C44.2328 20.189 44.5897 20.0652 44.8952 19.8176C45.2006 19.57 45.3698 19.2604 45.4028 18.889H46.4862C46.4655 19.2728 46.3335 19.6381 46.09 19.9847C45.8465 20.3314 45.5204 20.6079 45.1118 20.8143C44.7074 21.0206 44.2782 21.1238 43.8242 21.1238C42.9121 21.1238 42.1857 20.8205 41.6451 20.2138C41.1085 19.603 40.8403 18.7693 40.8403 17.7128V17.5208C40.8403 16.8688 40.96 16.2889 41.1993 15.7813C41.4387 15.2736 41.7813 14.8795 42.227 14.5989C42.6768 14.3182 43.2072 14.1779 43.818 14.1779C44.5691 14.1779 45.1923 14.4028 45.6876 14.8527C46.1869 15.3025 46.4531 15.8865 46.4862 16.6046H45.4028C45.3698 16.1713 45.2047 15.8164 44.9075 15.5398C44.6145 15.2592 44.2513 15.1189 43.818 15.1189C43.2361 15.1189 42.7841 15.3294 42.4622 15.7503C42.1444 16.1672 41.9855 16.7718 41.9855 17.5642V17.7809C41.9855 18.5526 42.1444 19.1469 42.4622 19.5638C42.78 19.9806 43.234 20.189 43.8242 20.189ZM50.5534 21.1238C49.6455 21.1238 48.9067 20.8267 48.3372 20.2324C47.7676 19.6339 47.4829 18.8353 47.4829 17.8366V17.6261C47.4829 16.9616 47.6087 16.3694 47.8605 15.8494C48.1164 15.3252 48.4713 14.9166 48.9253 14.6236C49.3834 14.3265 49.8786 14.1779 50.411 14.1779C51.2819 14.1779 51.9587 14.4647 52.4416 15.0384C52.9244 15.6121 53.1659 16.4334 53.1659 17.5023V17.979H48.6281C48.6446 18.6393 48.8365 19.1738 49.2039 19.5823C49.5753 19.9868 50.0458 20.189 50.6153 20.189C51.0198 20.189 51.3623 20.1065 51.643 19.9414C51.9236 19.7763 52.1692 19.5576 52.3797 19.2852L53.0792 19.83C52.5179 20.6925 51.676 21.1238 50.5534 21.1238ZM50.411 15.1189C49.9488 15.1189 49.5609 15.2881 49.2472 15.6265C48.9335 15.9608 48.7396 16.4313 48.6653 17.038H52.0206V16.9513C51.9876 16.3694 51.8308 15.9195 51.5501 15.6017C51.2695 15.2798 50.8898 15.1189 50.411 15.1189ZM58.397 19.2233C58.397 18.9137 58.2794 18.6744 58.0441 18.5052C57.813 18.3318 57.4065 18.1832 56.8246 18.0594C56.2468 17.9356 55.7866 17.787 55.444 17.6137C55.1056 17.4404 54.8539 17.234 54.6888 16.9946C54.5278 16.7553 54.4473 16.4705 54.4473 16.1403C54.4473 15.5914 54.6785 15.1271 55.1407 14.7474C55.6071 14.3677 56.2014 14.1779 56.9236 14.1779C57.683 14.1779 58.2979 14.3739 58.7684 14.766C59.2431 15.1581 59.4804 15.6595 59.4804 16.2703H58.3289C58.3289 15.9567 58.1948 15.6863 57.9265 15.4594C57.6624 15.2324 57.3281 15.1189 56.9236 15.1189C56.5068 15.1189 56.1807 15.2097 55.9455 15.3913C55.7102 15.5729 55.5926 15.8102 55.5926 16.1032C55.5926 16.3797 55.702 16.5881 55.9207 16.7284C56.1395 16.8688 56.5336 17.0029 57.1031 17.1308C57.6768 17.2588 58.1411 17.4115 58.496 17.5889C58.851 17.7664 59.113 17.981 59.2823 18.2328C59.4556 18.4804 59.5423 18.7837 59.5423 19.1428C59.5423 19.7412 59.3029 20.222 58.8241 20.5852C58.3454 20.9443 57.7243 21.1238 56.9608 21.1238C56.4242 21.1238 55.9496 21.0289 55.5369 20.839C55.1242 20.6492 54.8002 20.3851 54.565 20.0466C54.3339 19.7041 54.2183 19.3347 54.2183 18.9385H55.3636C55.3842 19.3223 55.5369 19.6277 55.8217 19.8547C56.1106 20.0776 56.4903 20.189 56.9608 20.189C57.3941 20.189 57.7408 20.1024 58.0008 19.929C58.2649 19.7515 58.397 19.5163 58.397 19.2233ZM64.9343 19.2233C64.9343 18.9137 64.8167 18.6744 64.5815 18.5052C64.3504 18.3318 63.9438 18.1832 63.3619 18.0594C62.7841 17.9356 62.3239 17.787 61.9814 17.6137C61.643 17.4404 61.3912 17.234 61.2261 16.9946C61.0652 16.7553 60.9847 16.4705 60.9847 16.1403C60.9847 15.5914 61.2158 15.1271 61.678 14.7474C62.1444 14.3677 62.7387 14.1779 63.461 14.1779C64.2203 14.1779 64.8353 14.3739 65.3058 14.766C65.7804 15.1581 66.0177 15.6595 66.0177 16.2703H64.8662C64.8662 15.9567 64.7321 15.6863 64.4638 15.4594C64.1997 15.2324 63.8654 15.1189 63.461 15.1189C63.0441 15.1189 62.7181 15.2097 62.4828 15.3913C62.2476 15.5729 62.13 15.8102 62.13 16.1032C62.13 16.3797 62.2393 16.5881 62.4581 16.7284C62.6768 16.8688 63.0709 17.0029 63.6405 17.1308C64.2142 17.2588 64.6785 17.4115 65.0334 17.5889C65.3883 17.7664 65.6504 17.981 65.8196 18.2328C65.9929 18.4804 66.0796 18.7837 66.0796 19.1428C66.0796 19.7412 65.8402 20.222 65.3615 20.5852C64.8827 20.9443 64.2616 21.1238 63.4981 21.1238C62.9616 21.1238 62.487 21.0289 62.0742 20.839C61.6615 20.6492 61.3376 20.3851 61.1023 20.0466C60.8712 19.7041 60.7556 19.3347 60.7556 18.9385H61.9009C61.9215 19.3223 62.0742 19.6277 62.359 19.8547C62.6479 20.0776 63.0276 20.189 63.4981 20.189C63.9314 20.189 64.2781 20.1024 64.5381 19.929C64.8023 19.7515 64.9343 19.5163 64.9343 19.2233ZM70.3512 21.1238C69.4432 21.1238 68.7044 20.8267 68.1349 20.2324C67.5654 19.6339 67.2806 18.8353 67.2806 17.8366V17.6261C67.2806 16.9616 67.4065 16.3694 67.6582 15.8494C67.9141 15.3252 68.269 14.9166 68.723 14.6236C69.1811 14.3265 69.6764 14.1779 70.2088 14.1779C71.0796 14.1779 71.7564 14.4647 72.2393 15.0384C72.7222 15.6121 72.9636 16.4334 72.9636 17.5023V17.979H68.4259C68.4424 18.6393 68.6343 19.1738 69.0016 19.5823C69.373 19.9868 69.8435 20.189 70.4131 20.189C70.8175 20.189 71.1601 20.1065 71.4407 19.9414C71.7214 19.7763 71.9669 19.5576 72.1774 19.2852L72.877 19.83C72.3157 20.6925 71.4737 21.1238 70.3512 21.1238ZM70.2088 15.1189C69.7465 15.1189 69.3586 15.2881 69.0449 15.6265C68.7313 15.9608 68.5373 16.4313 68.463 17.038H71.8184V16.9513C71.7853 16.3694 71.6285 15.9195 71.3479 15.6017C71.0672 15.2798 70.6875 15.1189 70.2088 15.1189Z" fill="#121826"/>
</svg>
