<svg width="52" height="52" viewBox="0 0 52 52" fill="none" xmlns="http://www.w3.org/2000/svg">
<path d="M26 0C11.6428 0 0 11.6428 0 26C0 40.3572 11.6428 52 26 52C40.3572 52 52 40.3572 52 26C52 11.6428 40.3572 0 26 0ZM18.4447 39.3047H12.1125V20.2542H18.4447V39.3047ZM15.2788 17.6528H15.2375C13.1127 17.6528 11.7384 16.1901 11.7384 14.362C11.7384 12.4926 13.1547 11.0703 15.3209 11.0703C17.487 11.0703 18.82 12.4926 18.8613 14.362C18.8613 16.1901 17.487 17.6528 15.2788 17.6528ZM41.2772 39.3047H34.9458V29.1131C34.9458 26.5518 34.029 24.8051 31.7379 24.8051C29.9887 24.8051 28.9469 25.9833 28.4891 27.1208C28.3217 27.5278 28.2808 28.0967 28.2808 28.666V39.3047H21.949C21.949 39.3047 22.0319 22.0414 21.949 20.2542H28.2808V22.9515C29.1223 21.6534 30.6278 19.8071 33.9873 19.8071C38.1534 19.8071 41.2772 22.5298 41.2772 28.3812V39.3047Z" fill="#F2F2F2"/>
</svg>
