<svg width="25" height="25" viewBox="0 0 25 25" fill="none" xmlns="http://www.w3.org/2000/svg">
<g clip-path="url(#clip0)">
<path d="M24.9444 13.6692H0.0561523V13.6696H24.9444V13.6692Z" fill="#C42126"/>
<path d="M23.6473 6.84534H1.35254V6.84571H23.6473V6.84534Z" fill="#C42126"/>
<path d="M24.5329 9.11963H0.46582V9.12H24.5329V9.11963Z" fill="#C42126"/>
<path d="M5.37237 22.7665H19.6276L19.6283 22.7657H5.37158L5.37237 22.7665Z" fill="#C42126"/>
<path d="M12.4999 0C12.2544 0 12.0108 0.0088668 11.769 0.0226948H13.231C12.989 0.0088668 12.7454 0 12.4999 0Z" fill="#C42126"/>
<path d="M24.9477 11.3943H0.0515137V11.3947H24.9477V11.3943Z" fill="#C42126"/>
<path d="M16.1944 4.57103H22.1632C21.4543 3.70794 20.6303 2.94392 19.7174 2.29712H15.2354C15.6062 2.94962 15.9252 3.71955 16.1944 4.57103Z" fill="#F3F4F5"/>
<path d="M15.2355 2.2972H19.7176C17.8647 0.98412 15.6401 0.161829 13.2311 0.0227051H12.8462C13.9801 0.165418 14.5009 1.0046 15.2355 2.2972Z" fill="#E73625"/>
<path d="M24.534 9.11986C24.3118 8.32723 24.0137 7.56675 23.6474 6.84595H16.7805C16.9196 7.57603 17.0294 8.33863 17.1107 9.11986H24.534Z" fill="#F3F4F5"/>
<path d="M16.3943 6.84557H23.6472C23.2339 6.03262 22.7374 5.26976 22.1634 4.57129H15.8276C16.051 5.27847 16.2407 6.04133 16.3943 6.84557Z" fill="#E73625"/>
<path d="M17.3735 13.6686H24.9436C24.9796 13.2839 24.9999 12.8941 24.9999 12.5002C24.9999 12.1274 24.9804 11.7593 24.9484 11.3945H17.3753C17.4 12.1508 17.3996 12.9127 17.3735 13.6686Z" fill="#F3F4F5"/>
<path d="M24.9486 11.3942C24.8801 10.6131 24.7394 9.85328 24.5339 9.12024H16.7917C16.8695 9.86489 16.9208 10.6268 16.9459 11.3942H24.9486Z" fill="#E73625"/>
<path d="M16.6497 18.2174H23.6144C23.9859 17.4974 24.2886 16.7363 24.5156 15.9431H16.9864C16.9035 16.7255 16.7909 17.4879 16.6497 18.2174Z" fill="#F3F4F5"/>
<path d="M24.5159 15.943C24.7257 15.2101 24.8714 14.4503 24.9438 13.6691H17.1376C17.111 14.437 17.0581 15.1987 16.9788 15.943H24.5159Z" fill="#E73625"/>
<path d="M19.6284 22.7659C20.5545 22.1216 21.3901 21.3568 22.1103 20.4919H16.2455C15.9714 21.347 15.6459 22.1157 15.2683 22.7659H19.6284Z" fill="#F3F4F5"/>
<path d="M16.0249 20.4917H22.1104C22.691 19.794 23.1951 19.0311 23.6145 18.2174H16.5987C16.443 19.0222 16.2513 19.7855 16.0249 20.4917Z" fill="#E73625"/>
<path d="M12.047 24.9911C12.0217 24.9904 11.9965 24.9892 11.9712 24.9884C11.9965 24.9891 12.0218 24.9904 12.047 24.9911Z" fill="#E73625"/>
<path d="M12.5 24.9999C15.1501 24.9999 17.6055 24.1727 19.6278 22.7665H15.1039C14.301 24.1498 13.7712 24.9999 12.5 24.9999Z" fill="#E73625"/>
<path d="M12.5001 25.0001C12.3483 25.0001 12.1975 24.9965 12.0471 24.9912C12.1991 24.9963 12.35 25.0001 12.5001 25.0001Z" fill="#C42126"/>
<path d="M15.6493 2.29712H5.28269C4.36968 2.94392 3.54586 3.70789 2.83667 4.57103H16.6081C16.3389 3.71955 16.0202 2.94962 15.6493 2.29712Z" fill="#F3F4F5"/>
<path d="M5.28271 2.2972H15.6493C14.9145 1.0046 13.98 0.165418 12.8461 0.0227051H11.769C9.35997 0.161829 7.1354 0.98412 5.28271 2.2972Z" fill="#E73625"/>
<path d="M0.466309 9.11986H17.5048C17.4235 8.33848 17.3138 7.57603 17.1746 6.84595H1.35288C0.986547 7.5668 0.688559 8.32723 0.466309 9.11986Z" fill="#F3F4F5"/>
<path d="M2.83663 4.57104C2.26309 5.26952 1.76613 6.03233 1.35303 6.84533H17.1746C17.0212 6.04124 16.8316 5.27844 16.6081 4.57104C16.6081 4.57104 2.83663 4.57104 2.83663 4.57104Z" fill="#E73625"/>
<path d="M0 12.5002C0 12.8941 0.0205309 13.2839 0.056262 13.6686H17.6574C17.6835 12.9126 17.6839 12.151 17.6592 11.3947H0.0515119C0.0195281 11.7592 0 12.1273 0 12.5002Z" fill="#F3F4F5"/>
<path d="M0.0515137 11.3942H17.659C17.634 10.6266 17.5824 9.86495 17.5049 9.12024H0.465984C0.260517 9.85344 0.119809 10.6131 0.0515137 11.3942Z" fill="#E73625"/>
<path d="M17.4986 15.9429H0.484131C0.711132 16.7363 1.01408 17.4971 1.38533 18.2172H17.1618C17.3032 17.4879 17.4154 16.7254 17.4986 15.9429Z" fill="#F3F4F5"/>
<path d="M0.484272 15.943H17.4987C17.5779 15.1987 17.6309 14.4368 17.6576 13.6691H0.0563965C0.128809 14.4505 0.274689 15.2101 0.484272 15.943Z" fill="#E73625"/>
<path d="M5.37181 22.7659H15.6113C15.9889 22.1155 16.3145 21.347 16.5885 20.4919H2.88989C3.61011 21.3568 4.44554 22.1216 5.37181 22.7659Z" fill="#F3F4F5"/>
<path d="M1.38574 18.2174C1.80517 19.0311 2.30921 19.794 2.88988 20.4917H16.5885C16.8147 19.7855 17.0064 19.0223 17.162 18.2174H1.38574Z" fill="#E73625"/>
<path d="M11.9712 24.9884C11.9965 24.9892 12.0217 24.9904 12.047 24.9912C12.1974 24.9965 12.3482 25 12.4999 25C13.7712 25 14.8078 24.15 15.6109 22.7666H5.37256C7.25924 24.0788 9.52386 24.8864 11.9712 24.9884Z" fill="#E73625"/>
<path d="M12.2415 0.00646973C5.83596 0.13678 0.615104 5.08261 0.0532227 11.3738H12.2418V0.00646973H12.2415Z" fill="#283991"/>
<path d="M2.50106 7.08228L2.69149 7.66865H3.30847L2.80934 8.03123L2.99998 8.61803L2.50106 8.25523L2.00231 8.61803L2.19257 8.03123L1.6936 7.66865H2.31058L2.50106 7.08228Z" fill="#EFEFEF"/>
<path d="M2.50106 9.15393L2.69149 9.74067H3.30847L2.80934 10.1033L2.99998 10.6901L2.50106 10.3273L2.00231 10.6901L2.19257 10.1033L1.6936 9.74067H2.31058L2.50106 9.15393Z" fill="#EFEFEF"/>
<path d="M4.57305 3.97412L4.76353 4.5607H5.3803L4.88133 4.9235L5.07181 5.50987L4.57305 5.14749L4.07408 5.50987L4.26456 4.9235L3.76538 4.5607H4.38236L4.57305 3.97412Z" fill="#EFEFEF"/>
<path d="M4.57305 6.04614L4.76353 6.63272H5.3803L4.88133 6.9951L5.07181 7.58189L4.57305 7.21952L4.07408 7.58189L4.26456 6.9951L3.76538 6.63272H4.38236L4.57305 6.04614Z" fill="#EFEFEF"/>
<path d="M4.57305 8.11804L4.76353 8.70483H5.3803L4.88133 9.067L5.07181 9.65379L4.57305 9.29105L4.07408 9.65379L4.26456 9.067L3.76538 8.70483H4.38236L4.57305 8.11804Z" fill="#EFEFEF"/>
<path d="M0.928067 9.65384L0.737431 9.06705L1.2364 8.70467H0.619788L0.60596 8.66187C0.538245 8.87129 0.477075 9.08325 0.420654 9.29758L0.429363 9.29109L0.928067 9.65384Z" fill="#EFEFEF"/>
<path d="M2.00237 6.54604L2.50113 6.18329L3.00009 6.54604L2.80946 5.95925L3.30843 5.5965H2.69145L2.50097 5.01013L2.31049 5.5965H2.08312C2.0409 5.66047 2.00005 5.72481 1.95898 5.78972L2.19269 5.95925L2.00237 6.54604Z" fill="#EFEFEF"/>
<path d="M4.57312 3.07551L5.07188 3.43789L4.8814 2.85152L5.38016 2.48877H5.0239C4.72132 2.71498 4.42941 2.95438 4.14894 3.20698L4.07373 3.43789L4.57312 3.07551Z" fill="#EFEFEF"/>
<path d="M6.146 2.40203L6.64497 2.03928L7.14372 2.40203L6.95325 1.81524L7.45201 1.45286H6.83523L6.80937 1.3739C6.60037 1.48067 6.39353 1.59177 6.19139 1.71L6.33626 1.81518L6.146 2.40203Z" fill="#EFEFEF"/>
<path d="M6.64502 2.93835L6.8355 3.52457H7.45227L6.9533 3.88731L7.14378 4.47411L6.64502 4.11131L6.14605 4.47411L6.33653 3.88731L5.8374 3.52457H6.45433L6.64502 2.93835Z" fill="#EFEFEF"/>
<path d="M6.64502 5.01025L6.8355 5.59647H7.45227L6.9533 5.95921L7.14378 6.54601L6.64502 6.18321L6.14605 6.54601L6.33653 5.95921L5.8374 5.59647H6.45433L6.64502 5.01025Z" fill="#EFEFEF"/>
<path d="M6.64502 7.08228L6.8355 7.66865H7.45227L6.9533 8.03123L7.14378 8.61803L6.64502 8.25523L6.14605 8.61803L6.33653 8.03123L5.8374 7.66865H6.45433L6.64502 7.08228Z" fill="#EFEFEF"/>
<path d="M6.64502 9.15393L6.8355 9.74067H7.45227L6.9533 10.1033L7.14378 10.6901L6.64502 10.3273L6.14605 10.6901L6.33653 10.1033L5.8374 9.74067H6.45433L6.64502 9.15393Z" fill="#EFEFEF"/>
<path d="M8.71704 1.9021L8.90752 2.48868H9.52429L9.02553 2.85148L9.2158 3.43785L8.71704 3.07547L8.21791 3.43785L8.40855 2.85148L7.90942 2.48868H8.52635L8.71704 1.9021Z" fill="#EFEFEF"/>
<path d="M8.71704 3.97412L8.90752 4.5607H9.52429L9.02553 4.9235L9.2158 5.50987L8.71704 5.14749L8.21791 5.50987L8.40855 4.9235L7.90942 4.5607H8.52635L8.71704 3.97412Z" fill="#EFEFEF"/>
<path d="M8.71704 6.04614L8.90752 6.63272H9.52429L9.02553 6.9951L9.2158 7.58189L8.71704 7.21952L8.21791 7.58189L8.40855 6.9951L7.90942 6.63272H8.52635L8.71704 6.04614Z" fill="#EFEFEF"/>
<path d="M8.71704 8.11804L8.90752 8.70483H9.52429L9.02553 9.067L9.2158 9.65379L8.71704 9.29105L8.21791 9.65379L8.40855 9.067L7.90942 8.70483H8.52635L8.71704 8.11804Z" fill="#EFEFEF"/>
<path d="M10.7891 0.866333L10.9795 1.45291H11.5963L11.0973 1.81529L11.2878 2.40208L10.7891 2.03928L10.2899 2.40208L10.4806 1.81529L9.98145 1.45291H10.5982L10.7891 0.866333Z" fill="#EFEFEF"/>
<path d="M10.7891 2.93835L10.9795 3.52457H11.5963L11.0973 3.88731L11.2878 4.47411L10.7891 4.11131L10.2899 4.47411L10.4806 3.88731L9.98145 3.52457H10.5982L10.7891 2.93835Z" fill="#EFEFEF"/>
<path d="M10.7891 5.01025L10.9795 5.59647H11.5963L11.0973 5.95921L11.2878 6.54601L10.7891 6.18321L10.2899 6.54601L10.4806 5.95921L9.98145 5.59647H10.5982L10.7891 5.01025Z" fill="#EFEFEF"/>
<path d="M10.7891 7.08228L10.9795 7.66865H11.5963L11.0973 8.03123L11.2878 8.61803L10.7891 8.25523L10.2899 8.61803L10.4806 8.03123L9.98145 7.66865H10.5982L10.7891 7.08228Z" fill="#EFEFEF"/>
<path d="M10.7891 9.15393L10.9795 9.74067H11.5963L11.0973 10.1033L11.2878 10.6901L10.7891 10.3273L10.2899 10.6901L10.4806 10.1033L9.98145 9.74067H10.5982L10.7891 9.15393Z" fill="#EFEFEF"/>
</g>
<defs>
<clipPath id="clip0">
<rect width="25" height="25" fill="white"/>
</clipPath>
</defs>
</svg>
