<svg width="25" height="25" viewBox="0 0 25 25" fill="none" xmlns="http://www.w3.org/2000/svg">
<path d="M12.5 25C19.4036 25 25 19.4036 25 12.5C25 5.59644 19.4036 0 12.5 0C5.59644 0 0 5.59644 0 12.5C0 19.4036 5.59644 25 12.5 25Z" fill="#6DA544"/>
<path d="M12.5001 4.89136L22.8262 12.5L12.5001 20.1087L2.17407 12.5L12.5001 4.89136Z" fill="#FFDA44"/>
<path d="M12.4999 16.8478C14.9011 16.8478 16.8477 14.9012 16.8477 12.5C16.8477 10.0988 14.9011 8.15222 12.4999 8.15222C10.0987 8.15222 8.1521 10.0988 8.1521 12.5C8.1521 14.9012 10.0987 16.8478 12.4999 16.8478Z" fill="#F0F0F0"/>
<path d="M10.3261 12.2283C9.57002 12.2283 8.84038 12.3433 8.15356 12.5566C8.18398 14.9316 10.1178 16.8479 12.5 16.8479C13.973 16.8479 15.274 16.1146 16.0605 14.9939C14.7149 13.3095 12.6446 12.2283 10.3261 12.2283Z" fill="#0052B4"/>
<path d="M16.7672 13.333C16.8196 13.0633 16.8478 12.785 16.8478 12.5C16.8478 10.0988 14.9013 8.15222 12.5 8.15222C10.7083 8.15222 9.17026 9.23625 8.50464 10.784C9.09302 10.6621 9.7022 10.5979 10.3262 10.5979C12.8514 10.5978 15.1359 11.6475 16.7672 13.333Z" fill="#0052B4"/>
</svg>
