<svg width="25" height="25" viewBox="0 0 25 25" fill="none" xmlns="http://www.w3.org/2000/svg">
<g clip-path="url(#clip0)">
<path d="M12.5 25.0001C8.50046 25.0001 4.94283 23.1201 2.65492 20.1976H9.23847C10.0884 23.0307 10.5627 25.0001 12.5 25.0001Z" fill="#D32030"/>
<path d="M13.2399 24.9785C13.2428 24.9785 13.2454 24.978 13.2483 24.978C13.2454 24.978 13.2425 24.9785 13.2399 24.9785Z" fill="#D32030"/>
<path d="M9.23847 4.80242H2.65476C4.94289 1.88036 8.50056 0 12.5 0C10.5627 0 10.0884 1.96934 9.23847 4.80242Z" fill="#D32030"/>
<path d="M13.2483 0.023358C13.2454 0.023358 13.2428 0.0228595 13.2399 0.0228595C13.2425 0.0227883 13.2454 0.0227883 13.2483 0.023358Z" fill="#D32030"/>
<path d="M2.65466 4.80237H9.23853C7.90981 9.231 7.90981 15.7695 9.23853 20.1975H2.65524C0.993387 18.0753 3.24249e-05 15.4047 3.24249e-05 12.5C-0.000178337 9.59555 0.993228 6.92472 2.65466 4.80237Z" fill="#FFD034"/>
<path d="M12.4999 25C12.7486 25 12.9957 24.9928 13.2412 24.9785C12.9922 24.9923 12.7446 25 12.4999 25Z" fill="#C42126"/>
<path d="M13.2412 0.0219033C12.9957 0.0072835 12.7486 0 12.4999 0C12.7446 0 12.9922 0.00807519 13.2412 0.0219033Z" fill="#C42126"/>
<path d="M8.31901 20.1976H22.3447C20.2007 22.9365 16.9409 24.7599 13.2483 24.9781C13.2459 24.9781 13.2438 24.9785 13.2414 24.9785C12.9959 24.9927 12.7488 25.0001 12.5001 25.0001C10.5627 25.0001 9.16907 23.0307 8.31901 20.1976Z" fill="#D32030"/>
<path d="M22.3447 4.80242H8.31897C9.16908 1.96934 10.5627 0 12.5 0C12.7487 0 12.9958 0.0072835 13.2413 0.0219033C13.2437 0.0219033 13.2459 0.0222727 13.2483 0.0222727C16.9409 0.240408 20.2007 2.06392 22.3447 4.80242Z" fill="#D32030"/>
<path d="M25 12.5C25 15.4047 24.0066 18.0753 22.3448 20.1975H8.31903C6.99032 15.7693 6.99032 9.23074 8.31903 4.80237H22.3448C24.0066 6.92472 25 9.59555 25 12.5Z" fill="#FFD034"/>
</g>
<defs>
<clipPath id="clip0">
<rect width="25" height="25" fill="white" transform="matrix(-1 0 0 1 25 0)"/>
</clipPath>
</defs>
</svg>
