<svg width="197" height="57" viewBox="0 0 197 57" fill="none" xmlns="http://www.w3.org/2000/svg">
<path fill-rule="evenodd" clip-rule="evenodd" d="M26.4128 31.1867C29.0508 30.206 31.7771 29.5041 34.4545 28.6477C35.8389 28.2048 35.8506 28.2238 36.2815 29.5823C37.0643 32.0494 37.8388 34.519 38.6206 36.9861C38.706 37.2561 38.8902 37.5137 38.6732 37.8009C38.3937 37.8616 38.1084 37.9032 37.8359 37.9858C35.276 38.7608 32.7106 39.5168 30.1664 40.3389C29.505 40.553 29.2642 40.4138 29.0705 39.7681C28.2088 36.8999 27.3026 34.0459 26.4128 31.1867ZM29.7374 33.8778C30.0781 34.9995 30.4368 36.1169 30.7501 37.2466C30.8552 37.6266 30.9745 37.6778 31.3408 37.5437C32.2513 37.2112 33.1823 36.9361 34.1053 36.6379C34.5493 36.5173 34.9885 36.3734 35.4384 36.2824C35.8747 36.194 35.9163 35.9517 35.7992 35.59C35.3647 34.2457 34.9232 32.9033 34.5125 31.5517C34.3917 31.1549 34.2399 31.0756 33.8379 31.2127C32.7205 31.5934 31.5852 31.9215 30.4561 32.2697C29.2197 32.6508 29.2194 32.6505 29.7374 33.8778Z" fill="#6FCF97"/>
<path fill-rule="evenodd" clip-rule="evenodd" d="M6.16665 19.9344C8.11877 16.2626 12.9551 16.3357 14.9295 19.5909C16.1578 21.6163 15.7875 24.2116 14.0499 25.816C13.8051 26.0422 13.5895 26.2998 13.3601 26.5427C12.9916 26.4624 12.6877 26.6681 12.3656 26.7773C9.56088 27.7328 6.49133 26.055 5.86896 23.2134C5.64168 22.1764 5.83029 21.1522 6.00576 20.1302L5.99737 20.1394C6.13892 20.1416 6.15826 20.0425 6.16665 19.9344ZM8.2585 21.3415C8.13665 21.3353 8.11768 21.4116 8.12461 21.5088C7.58359 23.7739 10.0625 25.5058 11.8983 24.4268C12.2952 24.2861 12.5659 23.9883 12.8114 23.669C13.4312 22.864 13.483 21.632 12.9445 20.7525C12.3758 19.8233 11.2409 19.2902 10.2252 19.4755C9.18731 19.6647 8.46863 20.3458 8.24719 21.3514L8.2585 21.3415Z" fill="#6FCF97"/>
<path fill-rule="evenodd" clip-rule="evenodd" d="M22.9827 14.7744C23.5985 13.8989 24.0669 13.7769 24.976 14.2599C25.7502 14.671 26.5228 15.0853 27.2959 15.4982C27.6414 15.8479 27.7712 15.5505 27.9051 15.29C28.2922 14.5365 28.6749 13.7813 29.0598 13.0264C29.3119 12.6917 29.4322 12.1977 29.932 12.1444C30.3753 12.0969 30.8561 12.0044 31.1899 12.4685C31.511 12.9142 31.5248 13.3604 31.2684 13.8379C30.8207 14.6699 30.4129 15.5253 29.9291 16.335C29.6599 16.7851 29.792 16.9751 30.1987 17.1812C30.9382 17.5557 31.6624 17.9609 32.3862 18.3658C33.4992 18.988 33.5937 19.7049 32.6911 20.6001C31.8028 20.8818 31.1855 20.2873 30.4935 19.9256C29.8718 19.6008 29.1079 18.9098 28.6501 19.0713C28.0671 19.2774 27.8749 20.2588 27.5483 20.9249C27.2138 21.4007 27.054 21.99 26.5954 22.3843C26.5312 22.4237 26.4674 22.4639 26.4036 22.503C26.4036 22.503 26.4138 22.4866 26.4134 22.4869C25.8636 22.5816 25.3478 22.503 25.0435 21.9959C24.7367 21.4854 24.7962 20.952 25.1497 20.4598C25.2332 20.3436 25.3076 20.2172 25.3657 20.0864C25.7035 19.3253 26.552 18.5773 26.3744 17.8674C26.192 17.1395 25.0373 17.0095 24.3544 16.5429C24.2362 16.4621 24.11 16.3744 23.9746 16.3408C23.1396 16.1333 22.9061 15.5549 22.9827 14.7744Z" fill="#6FCF97"/>
<path fill-rule="evenodd" clip-rule="evenodd" d="M14.1455 34.4248C14.3673 34.3459 14.4414 34.5425 14.5494 34.6543C16.8889 37.0739 19.2256 39.496 21.5607 41.9196C21.6768 42.0402 21.8296 42.1465 21.811 42.3493C18.7648 43.2814 15.7182 44.2142 12.5987 45.169C12.5239 44.3626 12.7308 43.6658 12.8351 42.9653C13.2601 40.1164 13.707 37.2712 14.1455 34.4248ZM15.7558 39.2548C15.6175 40.1888 15.1411 41.1366 15.5099 41.7146C15.7565 42.1016 16.7722 41.4336 17.4486 41.2571C17.4898 41.2466 17.5153 41.1746 17.5737 41.0971C17.0505 40.4676 16.4847 39.8767 15.7558 39.2548Z" fill="#6FCF97"/>
<path d="M87.434 39.1262C87.434 39.884 87.3037 40.6984 87.0436 41.567C86.7828 42.4362 86.3574 43.2426 85.7653 43.9847C85.1739 44.7275 84.4049 45.3476 83.4582 45.8452C82.5119 46.3433 81.3521 46.5917 79.9797 46.5917H56.6235C56.1817 46.5917 55.7717 46.5132 55.393 46.3549C55.0143 46.1971 54.6867 45.9797 54.4109 45.7035C54.1347 45.4272 53.9177 45.0991 53.7601 44.7202C53.6021 44.3406 53.5237 43.9303 53.5237 43.4878V15.709C53.5237 15.283 53.6025 14.8796 53.7601 14.5007C53.9177 14.1211 54.1347 13.7893 54.4109 13.505C54.6867 13.2204 55.0143 12.999 55.393 12.8415C55.7717 12.6837 56.1817 12.6047 56.6235 12.6047H77.2111C77.9685 12.6047 78.7809 12.7388 79.6488 13.0074C80.5167 13.2763 81.3248 13.7067 82.0741 14.299C82.8238 14.892 83.4473 15.6619 83.9438 16.6097C84.4403 17.5583 84.6891 18.7191 84.6891 20.0944V21.2556C84.6891 22.3459 84.5074 23.5191 84.1448 24.7753C83.7822 26.0315 83.1985 27.2201 82.394 28.3422C83.0879 28.769 83.7387 29.2827 84.3465 29.883C84.9536 30.4834 85.4858 31.1791 85.9433 31.9683C86.4008 32.7586 86.7634 33.6513 87.0319 34.6469C87.2997 35.6426 87.4347 36.7406 87.4347 37.9412V39.1262H87.434ZM81.2813 37.9409C81.2813 37.1352 81.1544 36.4121 80.9023 35.772C80.6502 35.1325 80.2953 34.5837 79.8378 34.1248C79.3796 33.6666 78.828 33.3155 78.1812 33.0699C77.5343 32.8251 76.8087 32.7024 76.0043 32.7024H62.137V26.4937H73.2354C74.0398 26.4937 74.765 26.371 75.4126 26.1262C76.059 25.8814 76.6114 25.5295 77.0688 25.0713C77.5263 24.6131 77.8769 24.0636 78.1221 23.4241C78.3665 22.784 78.4891 22.0613 78.4891 21.2552V20.094C78.4891 19.2091 78.063 18.7666 77.2107 18.7666H59.6759V40.4288H79.9797C80.0902 40.4288 80.2241 40.4211 80.3824 40.4054C80.54 40.3897 80.6816 40.3425 80.8085 40.2633C80.934 40.184 81.0449 40.0499 81.1391 39.8599C81.2339 39.6706 81.2817 39.4097 81.2817 39.0776V37.9409H81.2813Z" fill="#6FCF97"/>
<path d="M119.617 29.4559C119.617 30.3094 119.467 31.2298 119.167 32.2171C118.868 33.2051 118.382 34.1215 117.713 34.9663C117.041 35.8118 116.166 36.5184 115.086 37.0881C114.005 37.657 112.691 37.9409 111.146 37.9409H100.047V32.0863H111.146C111.982 32.0863 112.628 31.8302 113.086 31.3164C113.543 30.8034 113.772 30.1669 113.772 29.4088C113.772 28.6024 113.516 27.9706 113.004 27.5128C112.491 27.0546 111.871 26.8255 111.146 26.8255H100.047C99.211 26.8255 98.5642 27.0824 98.1067 27.5954C97.6492 28.1091 97.4205 28.7449 97.4205 29.503V38.1071C97.4205 38.9285 97.677 39.5687 98.1892 40.0268C98.7021 40.485 99.3369 40.7141 100.095 40.7141H111.146V46.5917H100.047C99.1953 46.5917 98.276 46.4419 97.2899 46.1416C96.3038 45.8419 95.3888 45.356 94.5454 44.6844C93.7012 44.0128 92.9949 43.1359 92.4269 42.0533C91.8589 40.9714 91.5754 39.656 91.5754 38.1075V29.4559C91.5754 28.6024 91.725 27.6823 92.0249 26.6947C92.324 25.7071 92.8092 24.7907 93.4798 23.9452C94.1503 23.1 95.0259 22.393 96.1068 21.8241C97.187 21.2552 98.5004 20.9706 100.046 20.9706H111.146C111.997 20.9706 112.916 21.1211 113.902 21.4207C114.888 21.7211 115.803 22.207 116.647 22.8786C117.491 23.5502 118.197 24.4271 118.765 25.509C119.333 26.592 119.617 27.9074 119.617 29.4559Z" fill="#6FCF97"/>
<path d="M151.28 29.4559C151.28 30.3094 151.129 31.2298 150.83 32.2171C150.53 33.2051 150.045 34.1215 149.374 34.9663C148.704 35.8118 147.828 36.5184 146.748 37.0881C145.667 37.657 144.354 37.9409 142.808 37.9409H131.709V32.0863H142.808C143.644 32.0863 144.29 31.8302 144.748 31.3164C145.205 30.8034 145.435 30.1669 145.435 29.4088C145.435 28.6024 145.178 27.9706 144.665 27.5128C144.153 27.0546 143.533 26.8255 142.808 26.8255H131.709C130.873 26.8255 130.227 27.0824 129.769 27.5954C129.311 28.1091 129.083 28.7449 129.083 29.503V38.1071C129.083 38.9285 129.339 39.5687 129.852 40.0268C130.364 40.485 130.999 40.7141 131.756 40.7141H142.808V46.5917H131.709C130.857 46.5917 129.938 46.4419 128.952 46.1416C127.966 45.8419 127.051 45.356 126.207 44.6844C125.363 44.0128 124.658 43.1359 124.09 42.0533C123.521 40.9714 123.237 39.656 123.237 38.1075V29.4559C123.237 28.6024 123.388 27.6823 123.687 26.6947C123.987 25.7071 124.472 24.7907 125.142 23.9452C125.813 23.1 126.688 22.393 127.769 21.8241C128.85 21.2552 130.163 20.9706 131.709 20.9706H142.807C143.66 20.9706 144.578 21.1211 145.564 21.4207C146.55 21.7211 147.465 22.207 148.31 22.8786C149.153 23.5502 149.859 24.4271 150.427 25.509C150.995 26.592 151.28 27.9074 151.28 29.4559Z" fill="#6FCF97"/>
<path d="M185.947 20.9709C185.253 23.1362 184.44 25.2693 183.509 27.3703C182.579 29.472 181.51 31.475 180.303 33.3787C179.096 35.2827 177.747 37.0446 176.257 38.664C174.766 40.2841 173.117 41.682 171.311 42.8586C169.504 44.0362 167.54 44.9603 165.418 45.6318C163.297 46.3042 160.997 46.6396 158.52 46.6396C158.094 46.6396 157.692 46.5603 157.313 46.4028C156.935 46.2442 156.604 46.0276 156.32 45.7506C156.036 45.4744 155.815 45.1503 155.657 44.7794C155.499 44.4082 155.421 44.0088 155.421 43.582V20.9709H161.573V40.2402C163.072 40.2402 164.511 39.9161 165.892 39.2683C167.272 38.6205 168.578 37.7633 169.808 36.6971C171.039 35.6302 172.178 34.4178 173.228 33.059C174.276 31.6997 175.211 30.3054 176.032 28.8753C176.852 27.4459 177.55 26.0436 178.126 24.6683C178.702 23.2937 179.132 22.0613 179.416 20.9709H185.947Z" fill="#6FCF97"/>
<path d="M194.396 15.709H188.243V10.1398H194.396V15.709ZM194.396 46.5916H188.243V20.9709H194.396V46.5916Z" fill="#6FCF97"/>
</svg>
